<svg xmlns="http://www.w3.org/2000/svg" width="960" height="520" viewBox="0 0 960 520">
  <rect width="960" height="520" rx="24" fill="#0f172a"/>
  <text x="48" y="54" fill="#f8fafc" font-family="Arial,sans-serif" font-size="28" font-weight="700">当前完整运动 makespan</text>
  <text x="48" y="84" fill="#94a3b8" font-family="Arial,sans-serif" font-size="15">2026-08-12 · 同机 headless · 越低越好 · 单位：仿真秒</text>
  <line x1="220" y1="112" x2="220" y2="454" stroke="#475569"/>
  <g font-family="Arial,sans-serif" font-size="17" fill="#e2e8f0">
    <text x="48" y="154">单件 A</text>
    <text x="48" y="264">三件 A</text>
    <text x="48" y="374">A / B / C</text>
  </g>
  <g>
    <rect x="220" y="126" width="165" height="28" rx="7" fill="#22c55e"/>
    <rect x="220" y="162" width="205" height="28" rx="7" fill="#64748b"/>
    <rect x="220" y="236" width="294" height="28" rx="7" fill="#22c55e"/>
    <rect x="220" y="272" width="668" height="28" rx="7" fill="#64748b"/>
    <rect x="220" y="346" width="287" height="28" rx="7" fill="#22c55e"/>
    <rect x="220" y="382" width="450" height="28" rx="7" fill="#64748b"/>
  </g>
  <g font-family="Arial,sans-serif" font-size="15" font-weight="700" fill="#f8fafc">
    <text x="395" y="146">V2 206.80 s</text><text x="435" y="182">V1 256.97 s</text>
    <text x="524" y="256">V2 368.50 s</text><text x="800" y="292">V1 835.13 s</text>
    <text x="517" y="366">V2 359.65 s</text><text x="680" y="402">V1 562.44 s</text>
  </g>
  <g font-family="Arial,sans-serif" font-size="16" fill="#86efac">
    <text x="220" y="220">↓ 19.5%</text><text x="524" y="330">↓ 55.9%</text><text x="517" y="440">↓ 36.1%</text>
  </g>
</svg>
